<svg width="24" height="24" viewBox="0 0 24 24" fill="none" xmlns="http://www.w3.org/2000/svg">
<path d="M9.94118 17.8835C9.94118 17.5201 10.0494 17.2042 10.2238 16.9189C10.3434 16.7231 10.2615 16.4453 10.0453 16.384C8.25526 15.8758 7 15.0586 7 12.3482C7 11.6436 7.22356 10.9811 7.61654 10.4045C7.71414 10.2613 7.76181 10.1961 7.77491 10.1247C7.78806 10.0529 7.76638 9.97478 7.72543 9.80485C7.58167 9.20833 7.57017 8.5799 7.73081 7.99369C7.78361 7.801 7.8968 7.68861 8.10166 7.7103C8.3674 7.73845 8.82753 7.86427 9.50999 8.30456C9.77813 8.47756 9.9122 8.56406 10.0303 8.58341C10.1484 8.60276 10.3062 8.56223 10.622 8.48117C11.0537 8.37033 11.4986 8.31082 12 8.31082C12.5014 8.31082 12.9463 8.37033 13.378 8.48117C13.6938 8.56223 13.8516 8.60276 13.9697 8.58341C14.0878 8.56406 14.2219 8.47756 14.49 8.30457C15.1725 7.86427 15.6326 7.73845 15.8983 7.7103C16.1032 7.68861 16.2164 7.801 16.2692 7.99369C16.4298 8.57989 16.4183 9.20831 16.2746 9.80483C16.2336 9.97478 16.2119 10.0529 16.2251 10.1247C16.2382 10.1961 16.2859 10.2612 16.3834 10.4044C16.7764 10.981 17 11.6436 17 12.3482C17 15.0586 15.7447 15.8758 13.9547 16.384C13.7385 16.4453 13.6566 16.7231 13.7762 16.9189C13.9506 17.2042 14.0588 17.5201 14.0588 17.8835V22.6546C19.011 21.6941 22.75 17.3345 22.75 12.1016C22.75 6.1645 17.9371 1.35156 12 1.35156C6.06294 1.35156 1.25 6.1645 1.25 12.1016C1.25 17.3345 4.98901 21.6941 9.94118 22.6546V19.8549C9.88484 19.8483 9.81816 19.8386 9.74225 19.8241C9.52615 19.7831 9.23571 19.7044 8.89714 19.5542C8.21489 19.2517 7.36263 18.6701 6.53685 17.5694C6.28826 17.2381 6.35533 16.768 6.68665 16.5194C7.01798 16.2708 7.48809 16.3379 7.73668 16.6692C8.4109 17.5678 9.06058 17.9858 9.50527 18.1831C9.6822 18.2615 9.83089 18.3069 9.94118 18.3331V17.8835Z" fill="white"/>
</svg>
