<svg width="24" height="24" viewBox="0 0 24 24" fill="none" xmlns="http://www.w3.org/2000/svg">
<path d="M5 9C5.94281 9 6.41414 9.00008 6.70703 9.29297C6.99992 9.58586 7 10.0572 7 11L7 19.5C7 20.4428 6.99992 20.9141 6.70703 21.207C6.41414 21.4999 5.94281 21.5 5 21.5H4.5C3.55719 21.5 3.08586 21.4999 2.79297 21.207C2.50008 20.9141 2.5 20.4428 2.5 19.5L2.5 11C2.5 10.0572 2.50008 9.58586 2.79297 9.29297C3.08586 9.00008 3.55719 9 4.5 9H5ZM11.8262 9C12.456 9 12.771 8.99995 13.0049 9.13672C13.153 9.22338 13.2766 9.34699 13.3633 9.49512C13.5001 9.72902 13.5 10.044 13.5 10.6738C14.2766 9.65299 15.4651 9 16.7969 9C19.1364 9.00007 21.4998 11.0149 21.5 13.5L21.499 19.001C21.4988 19.9433 21.4979 20.4143 21.2051 20.707C20.9122 20.9997 20.4413 21 19.499 21H19C18.0572 21 17.5859 20.9999 17.293 20.707C17.0001 20.4141 17 19.9428 17 19V14.5C16.9999 13.6716 16.3677 13 15.5879 13C14.0282 13 13.5 14.3432 13.5 16V19.5C13.5 20.4428 13.4999 20.9141 13.207 21.207C12.9141 21.4999 12.4428 21.5 11.5 21.5H11C10.0572 21.5 9.58586 21.4999 9.29297 21.207C9.00008 20.9141 9 20.4428 9 19.5L9 11C9 10.0572 9.00008 9.58586 9.29297 9.29297C9.58586 9.00008 10.0572 9 11 9L11.8262 9ZM4.75 2.5C5.99264 2.5 7 3.50736 7 4.75C7 5.99264 5.99264 7 4.75 7C3.50736 7 2.5 5.99264 2.5 4.75C2.5 3.50736 3.50736 2.5 4.75 2.5Z" fill="#3D3D3D"/>
</svg>
