<svg width="24" height="24" viewBox="0 0 24 24" fill="none" xmlns="http://www.w3.org/2000/svg">
<path d="M9.08038 2.7868C11.0334 2.73774 12.9672 2.73773 14.9202 2.7868L14.9788 2.78778C16.5033 2.82606 17.73 2.85684 18.7132 3.02801C19.7427 3.2073 20.5796 3.55186 21.2864 4.26141C21.9903 4.96797 22.3322 5.79258 22.5081 6.80535C22.6755 7.7696 22.7011 8.96636 22.7327 10.4489L22.7347 10.5085C22.7559 11.5046 22.7559 12.4948 22.7347 13.4909L22.7327 13.5505C22.7011 15.033 22.6755 16.2298 22.5081 17.194C22.3322 18.2068 21.9903 19.0314 21.2864 19.738C20.5796 20.4475 19.7427 20.7921 18.7132 20.9714C17.73 21.1425 16.5033 21.1733 14.9788 21.2116L14.9202 21.2126C12.9672 21.2616 11.0334 21.2616 9.08038 21.2126L9.02179 21.2116C7.49734 21.1733 6.27058 21.1425 5.28741 20.9714C4.25791 20.7921 3.42103 20.4475 2.71417 19.738C2.01032 19.0314 1.66836 18.2068 1.49249 17.194C1.32506 16.2298 1.29947 15.033 1.26788 13.5505L1.26593 13.4909C1.24469 12.4948 1.24469 11.5046 1.26593 10.5085L1.26788 10.4489C1.29947 8.96636 1.32506 7.7696 1.49249 6.80535C1.66836 5.79258 2.01032 4.96797 2.71417 4.26141C3.42103 3.55186 4.25791 3.2073 5.28741 3.02801C6.27059 2.85684 7.49734 2.82605 9.02179 2.78778L9.08038 2.7868ZM2.9212 7.3786C2.8172 8.17111 2.79507 9.17322 2.76593 10.5397C2.74513 11.5148 2.74513 12.4846 2.76593 13.4597C2.79909 15.0147 2.82431 16.0978 2.97003 16.9372C3.1096 17.7409 3.34953 18.2506 3.77667 18.6794C4.2009 19.1052 4.71683 19.3487 5.54425 19.4929C6.4054 19.6428 7.52108 19.6734 9.11749 19.7136C11.0454 19.762 12.9552 19.762 14.8831 19.7136C16.4795 19.6734 17.5952 19.6428 18.4564 19.4929C19.2838 19.3487 19.7997 19.1052 20.2239 18.6794C20.6511 18.2506 20.891 17.7409 21.0306 16.9372C21.1763 16.0978 21.2015 15.0147 21.2347 13.4597C21.2555 12.4846 21.2555 11.5148 21.2347 10.5397C21.2055 9.1737 21.1823 8.17195 21.0784 7.37957L15.4573 10.5651C14.1642 11.2978 13.1136 11.7457 12.0013 11.7458C10.8888 11.7458 9.83753 11.2979 8.54425 10.5651L2.9212 7.3786ZM14.8831 4.28582C12.9552 4.23738 11.0454 4.23739 9.11749 4.28582C7.52107 4.32593 6.4054 4.35655 5.54425 4.50653C4.71683 4.65065 4.2009 4.89416 3.77667 5.32C3.60369 5.49366 3.46234 5.68092 3.34503 5.8952L9.28351 9.26043C10.5388 9.97169 11.3011 10.2458 12.0013 10.2458C12.7014 10.2457 13.463 9.97154 14.7181 9.26043L20.6546 5.89617C20.5372 5.68176 20.397 5.49375 20.2239 5.32C19.7997 4.89416 19.2838 4.65065 18.4564 4.50653C17.5952 4.35655 16.4795 4.32593 14.8831 4.28582Z" fill="#3D3D3D"/>
</svg>
